<svg xmlns="http://www.w3.org/2000/svg" viewBox="0 0 48 48" width="48" height="48" role="img" aria-labelledby="t"><title id="t">my stars</title><rect x="6" y="14" width="36" height="20" rx="5" fill="#FFFFFF" stroke="#2E2E2E" stroke-width="2.2"/><path d="M15 18 L16.8 22.2 L21 22.5 L17.6 25.5 L18.7 30 L15 27 L11.3 30 L12.4 25.5 L9 22.5 L13.2 22.2 Z" fill="#F2C14E" stroke="#2E2E2E" stroke-width="1.4" stroke-linejoin="round"/><path d="M24 18 L25.8 22.2 L30 22.5 L26.6 25.5 L27.7 30 L24 27 L20.3 30 L21.4 25.5 L18 22.5 L22.2 22.2 Z" fill="#F2C14E" stroke="#2E2E2E" stroke-width="1.4" stroke-linejoin="round"/><path d="M33 18 L34.8 22.2 L39 22.5 L35.6 25.5 L36.7 30 L33 27 L29.3 30 L30.4 25.5 L27 22.5 L31.2 22.2 Z" fill="#FFFFFF" stroke="#2E2E2E" stroke-width="1.4" stroke-linejoin="round"/></svg>
