<svg xmlns="http://www.w3.org/2000/svg" viewBox="0 0 380 100" width="380" height="100" role="img" aria-label="Kathai Chithiram">
  <title>Kathai Chithiram</title>
  <g transform="translate(16,18)">
    <path d="M22 22 C20 8 44 8 42 22 C56 20 56 44 42 42 C44 56 20 56 22 42 C8 44 8 20 22 22 Z" fill="none" stroke="#4A90D9" stroke-width="3.5" stroke-linecap="round" stroke-linejoin="round"/>
    <circle cx="16" cy="16" r="2.4" fill="#F2C14E"/>
    <circle cx="48" cy="16" r="2.4" fill="#F2C14E"/>
    <circle cx="48" cy="48" r="2.4" fill="#F2C14E"/>
    <circle cx="16" cy="48" r="2.4" fill="#F2C14E"/>
  </g>
  <g transform="translate(100.00 50.00) scale(0.034000 -0.034000)" fill="#4A90D9">
    <path transform="translate(0.0 0.0)" d="M641 558Q644 549 646.0 539.5Q648 530 648 521Q648 501 636.0 489.5Q624 478 597 478H235V298L141 287V490Q141 522 157.0 540.0Q173 558 203 558ZM385 519H478V313L477 219Q477 181 469.0 147.0Q461 113 443 82L415 56Q386 26 342.5 9.0Q299 -8 242 -8Q147 -8 89.0 38.5Q31 85 31 163Q31 223 65.5 266.0Q100 309 159 325Q177 330 199.0 333.5Q221 337 247.0 338.5Q273 340 303 340Q327 340 361.0 340.0Q395 340 425 340L410 262Q387 262 353.5 262.0Q320 262 275 262Q240 262 214.0 257.5Q188 253 168 242Q149 229 138.5 210.0Q128 191 128 165Q128 123 160.0 98.0Q192 73 245 73Q309 73 347.0 110.5Q385 148 385 211V288V314ZM438 339H480Q593 340 655.0 292.0Q717 244 717 161Q717 83 668.5 37.5Q620 -8 538 -8Q490 -8 448.5 11.5Q407 31 381 60L437 115Q456 95 479.0 84.0Q502 73 532 73Q572 73 596.5 97.0Q621 121 621 162Q621 210 586.5 236.5Q552 263 488 263H426Z"/>
    <path transform="translate(752.0 0.0)" d="M255 259Q295 259 319.5 234.0Q344 209 345 168Q345 126 320.5 99.5Q296 73 255 73Q215 73 189.0 99.0Q163 125 163 168Q163 207 189.0 233.0Q215 259 255 259ZM271 337Q230 337 197.5 320.0Q165 303 145.0 274.0Q125 245 121 208L48 248Q48 171 73.5 113.0Q99 55 146.5 23.5Q194 -8 259 -8Q313 -8 354.0 14.5Q395 37 418.0 76.0Q441 115 441 168Q441 244 394.0 290.5Q347 337 271 337ZM428 568Q314 568 228.5 527.5Q143 487 95.5 415.5Q48 344 48 248L138 121Q136 157 135.0 191.5Q134 226 138 264Q143 329 178.5 377.5Q214 426 278.0 453.5Q342 481 431 481Q497 481 548.5 469.5Q600 458 641 436L695 416Q736 388 763.0 335.0Q790 282 790 208Q790 145 767.0 110.0Q744 75 704 75Q661 75 638.0 110.0Q615 145 615 208Q615 282 642.5 335.0Q670 388 710 416L754 446Q779 464 809.5 474.0Q840 484 881 484Q939 484 982.0 457.5Q1025 431 1049.0 382.5Q1073 334 1073 267Q1073 191 1049.5 130.0Q1026 69 990 30Q1011 -10 1049 -10Q1066 -10 1083.5 0.5Q1101 11 1119 37Q1144 75 1160.0 134.5Q1176 194 1176 266Q1176 359 1141.0 426.5Q1106 494 1041.5 531.0Q977 568 891 568Q830 568 773.0 546.0Q716 524 673 487L633 455Q602 430 575.0 393.0Q548 356 531.5 309.0Q515 262 515 206Q515 108 564.5 50.0Q614 -8 704 -8Q792 -8 841.0 50.0Q890 108 890 206Q890 263 872.0 311.5Q854 360 825.5 398.0Q797 436 763 459L710 492Q663 521 591.0 544.5Q519 568 428 568Z"/>
    <path transform="translate(1982.0 0.0)" d="M650 558Q654 549 656.0 539.5Q658 530 658 521Q658 501 646.0 489.5Q634 478 606 478H235V298L140 287V490Q140 522 156.0 540.0Q172 558 202 558ZM384 513H477V315L478 286V202Q478 106 414.5 49.0Q351 -8 241 -8Q146 -8 88.0 38.5Q30 85 30 163Q30 223 64.5 266.0Q99 309 159 325Q176 330 198.0 333.5Q220 337 246.0 338.5Q272 340 302 340Q326 340 360.0 340.0Q394 340 424 340L410 262Q386 262 353.0 262.0Q320 262 274 262Q240 262 214.0 257.5Q188 253 168 242Q149 229 138.0 210.0Q127 191 127 165Q127 123 159.0 98.0Q191 73 244 73Q309 73 346.5 109.5Q384 146 384 210V288ZM438 338H472Q550 335 606.0 305.0Q662 275 692.5 223.0Q723 171 723 99Q723 3 673.5 -64.5Q624 -132 531.0 -168.5Q438 -205 304 -205H40Q36 -195 33.0 -184.0Q30 -173 30 -162Q30 -140 43.0 -127.5Q56 -115 82 -115Q136 -115 189.5 -116.0Q243 -117 299 -117Q452 -117 535.5 -58.5Q619 0 619 106Q619 176 579.0 215.0Q539 254 473 257L427 258Z"/>
    <path transform="translate(3035.0 0.0)" d="M591 839Q675 839 737.0 803.0Q799 767 833.0 701.5Q867 636 867 546V3Q857 1 844.5 -1.5Q832 -4 819 -4Q765 -4 765 48V541Q765 639 719.0 695.5Q673 752 591 752Q527 752 490.0 719.5Q453 687 454 631Q453 599 465.0 572.5Q477 546 494 525L388 529Q373 549 363.5 578.0Q354 607 355 644Q355 702 384.0 746.0Q413 790 466.5 814.5Q520 839 591 839ZM632 558Q637 549 638.5 539.5Q640 530 640 521Q640 501 628.5 489.5Q617 478 588 478H237V298L143 287V490Q143 522 159.0 540.0Q175 558 205 558ZM387 513H480V315V286V202Q480 105 417.0 48.5Q354 -8 244 -8Q148 -8 90.5 38.5Q33 85 33 163Q33 223 67.5 266.0Q102 309 162 325Q179 330 201.0 333.5Q223 337 249.0 338.5Q275 340 305 340Q329 340 363.0 340.0Q397 340 427 340L412 262Q389 262 356.0 262.0Q323 262 277 262Q243 262 217.5 257.5Q192 253 171 242Q153 229 141.5 210.0Q130 191 130 165Q130 123 162.0 98.0Q194 73 247 73Q313 73 350.0 109.0Q387 145 387 210V288ZM446 340H665Q671 324 671 303Q671 258 619 258L435 259Z"/>
    <path transform="translate(3984.0 0.0)" d="M651 558Q655 549 657.0 539.5Q659 530 659 521Q659 501 647.0 489.5Q635 478 607 478H236V298L141 287V490Q141 522 157.0 540.0Q173 558 203 558ZM385 513H478V315L479 286V202Q479 106 415.5 49.0Q352 -8 242 -8Q147 -8 89.0 38.5Q31 85 31 163Q31 223 65.5 266.0Q100 309 160 325Q177 330 199.0 333.5Q221 337 247.0 338.5Q273 340 303 340Q327 340 361.0 340.0Q395 340 425 340L411 262Q387 262 354.0 262.0Q321 262 275 262Q241 262 215.0 257.5Q189 253 169 242Q150 229 139.0 210.0Q128 191 128 165Q128 123 160.0 98.0Q192 73 245 73Q310 73 347.5 109.5Q385 146 385 210V288ZM439 338H473Q551 335 607.0 305.0Q663 275 693.5 223.0Q724 171 724 99Q724 3 674.5 -64.5Q625 -132 532.0 -168.5Q439 -205 305 -205H41Q37 -195 34.0 -184.0Q31 -173 31 -162Q31 -140 44.0 -127.5Q57 -115 83 -115Q137 -115 190.5 -116.0Q244 -117 300 -117Q453 -117 536.5 -58.5Q620 0 620 106Q620 176 580.0 215.0Q540 254 474 257L428 258ZM374 634Q344 634 325.0 654.0Q306 674 306 705Q306 737 325.0 757.0Q344 777 374 777Q403 777 421.5 757.0Q440 737 440 705Q440 674 421.5 654.0Q403 634 374 634Z"/>
    <path transform="translate(4758.0 0.0)" d="M616 849Q713 849 785.0 811.5Q857 774 896.0 705.5Q935 637 935 544V3Q925 1 912.5 -1.5Q900 -4 887 -4Q833 -4 833 48V539Q833 643 775.0 703.0Q717 763 616 763Q542 763 497.5 727.0Q453 691 454 629Q452 566 492 526L387 529Q373 549 363.5 578.0Q354 607 355 642Q355 704 387.5 750.5Q420 797 479.0 823.0Q538 849 616 849ZM652 558Q655 549 657.0 539.5Q659 530 659 521Q659 501 647.0 489.5Q635 478 608 478H236V298L142 287V490Q142 522 158.0 540.0Q174 558 203 558ZM385 513H479V315V286V202Q479 106 415.5 49.0Q352 -8 243 -8Q147 -8 89.5 38.5Q32 85 32 163Q32 223 66.0 266.0Q100 309 160 325Q178 330 200.0 333.5Q222 337 248.0 338.5Q274 340 303 340Q327 340 361.5 340.0Q396 340 425 340L411 262Q388 262 354.5 262.0Q321 262 276 262Q242 262 216.0 257.5Q190 253 169 242Q150 229 139.0 210.0Q128 191 128 165Q128 123 160.5 98.0Q193 73 246 73Q311 73 348.0 109.5Q385 146 385 210V288ZM440 338H473Q551 335 607.0 305.0Q663 275 693.5 223.0Q724 171 724 99Q724 3 675.0 -64.5Q626 -132 532.5 -168.5Q439 -205 306 -205H41Q37 -195 34.5 -184.0Q32 -173 32 -162Q32 -140 45.0 -127.5Q58 -115 83 -115Q137 -115 191.0 -116.0Q245 -117 301 -117Q453 -117 536.5 -58.5Q620 0 620 106Q620 176 580.0 215.0Q540 254 474 257L428 258Z"/>
    <path transform="translate(5778.0 0.0)" d="M589 558Q594 547 595.5 537.0Q597 527 597 517Q597 496 585.0 485.0Q573 474 545 474H443H398H184V3Q173 1 161.0 -1.5Q149 -4 136 -4Q82 -4 82 48V490Q82 522 98.0 540.0Q114 558 143 558ZM375 506H477V7L274 -168Q250 -162 231.5 -146.5Q213 -131 213 -110Q213 -95 220.0 -84.5Q227 -74 237 -65L375 49Z"/>
    <path transform="translate(6381.0 0.0)" d="M131 562Q182 562 182 509V83H470Q531 83 576.5 107.5Q622 132 647.5 184.0Q673 236 673 317Q672 402 642.5 441.5Q613 481 566 481Q527 481 502.0 458.0Q477 435 465.5 391.0Q454 347 453 284Q453 241 454.5 205.0Q456 169 459.0 136.5Q462 104 467 69L365 70Q359 116 355.0 172.5Q351 229 351 292Q351 386 375.5 447.0Q400 508 448.0 538.0Q496 568 565 568Q628 568 676.0 537.0Q724 506 751.0 450.0Q778 394 778 318Q778 165 698.5 82.5Q619 0 462 0H145Q81 0 81 60V555Q92 558 105.5 560.0Q119 562 131 562ZM427 634Q397 634 378.0 654.0Q359 674 359 705Q359 737 378.0 757.0Q397 777 427 777Q456 777 474.5 757.0Q493 737 493 705Q493 674 474.5 654.0Q456 634 427 634Z"/>
  </g>
  <g transform="translate(100.00 82.00) scale(0.026000 -0.026000)" fill="#2E2E2E">
    <path transform="translate(0.0 0.0)" d="M153 314 251 348Q350 250 423.0 173.0Q496 96 545 50Q544 23 528.0 7.5Q512 -8 489 -8Q466 -8 449.0 4.5Q432 17 416 34ZM260 278 142 287 447 612Q483 611 500.0 596.0Q517 581 517 560Q517 544 509.0 529.5Q501 515 483 499ZM83 386H188V1Q181 -1 168.0 -3.5Q155 -6 140 -6Q110 -6 96.5 5.0Q83 16 83 42ZM188 278H83V607Q90 609 103.5 611.5Q117 614 132 614Q161 614 174.5 603.5Q188 593 188 566Z"/>
    <path transform="translate(578.0 0.0)" d="M245 66Q281 66 306.5 73.5Q332 81 344 88V217L233 206Q187 202 163.5 185.5Q140 169 140 137Q140 104 166.0 85.0Q192 66 245 66ZM242 482Q335 482 389.5 441.5Q444 401 444 314V81Q444 58 434.0 45.0Q424 32 406 22Q380 7 338.5 -3.5Q297 -14 245 -14Q148 -14 93.5 23.5Q39 61 39 134Q39 200 82.0 235.5Q125 271 204 278L344 292V315Q344 360 315.0 380.0Q286 400 236 400Q196 400 158.5 389.0Q121 378 92 364Q83 372 76.0 383.5Q69 395 69 408Q69 439 103 455Q131 468 167.5 475.0Q204 482 242 482Z"/>
    <path transform="translate(1088.0 0.0)" d="M71 264H173V136Q173 100 194.0 85.0Q215 70 253 70Q269 70 289.0 75.0Q309 80 322 87Q329 80 334.5 69.5Q340 59 340 46Q340 20 313.5 3.5Q287 -13 234 -13Q160 -13 115.5 20.0Q71 53 71 130ZM129 376V458H328Q332 452 335.5 441.0Q339 430 339 418Q339 397 329.5 386.5Q320 376 303 376ZM173 236H71V597Q77 599 90.0 602.0Q103 605 118 605Q146 605 159.5 594.0Q173 583 173 558Z"/>
    <path transform="translate(1466.0 0.0)" d="M490 201H388V292Q388 347 357.5 373.0Q327 399 280 399Q243 399 212.0 385.0Q181 371 160 352L149 435Q172 451 210.0 466.5Q248 482 296 482Q383 482 436.5 435.5Q490 389 490 296ZM71 264H174V2Q167 0 154.5 -3.0Q142 -6 127 -6Q99 -6 85.0 5.0Q71 16 71 41ZM388 263H490V2Q484 0 471.0 -3.0Q458 -6 443 -6Q415 -6 401.5 5.0Q388 16 388 41ZM174 213H71V649Q78 651 91.0 654.0Q104 657 119 657Q147 657 160.5 646.5Q174 636 174 610Z"/>
    <path transform="translate(2026.0 0.0)" d="M245 66Q281 66 306.5 73.5Q332 81 344 88V217L233 206Q187 202 163.5 185.5Q140 169 140 137Q140 104 166.0 85.0Q192 66 245 66ZM242 482Q335 482 389.5 441.5Q444 401 444 314V81Q444 58 434.0 45.0Q424 32 406 22Q380 7 338.5 -3.5Q297 -14 245 -14Q148 -14 93.5 23.5Q39 61 39 134Q39 200 82.0 235.5Q125 271 204 278L344 292V315Q344 360 315.0 380.0Q286 400 236 400Q196 400 158.5 389.0Q121 378 92 364Q83 372 76.0 383.5Q69 395 69 408Q69 439 103 455Q131 468 167.5 475.0Q204 482 242 482Z"/>
    <path transform="translate(2536.0 0.0)" d="M63 611Q63 637 81.0 654.0Q99 671 125 671Q153 671 170.0 654.0Q187 637 187 611Q187 586 170.0 568.5Q153 551 125 551Q99 551 81.0 568.5Q63 586 63 611ZM74 264H177V2Q170 0 157.5 -3.0Q145 -6 130 -6Q102 -6 88.0 5.0Q74 16 74 41ZM177 213H74V465Q81 467 94.0 469.5Q107 472 122 472Q150 472 163.5 461.5Q177 451 177 425Z"/>
    <path transform="translate(2987.0 0.0)" d="M535 535Q535 519 525.5 506.5Q516 494 503 487Q478 505 444.0 520.0Q410 535 358 535Q300 535 254.5 508.5Q209 482 183.0 430.5Q157 379 157 303Q157 189 213.5 131.0Q270 73 363 73Q412 73 448.5 87.0Q485 101 510 119Q522 112 531.0 99.5Q540 87 540 70Q540 56 533.0 44.5Q526 33 509 23Q487 9 449.0 -2.5Q411 -14 352 -14Q268 -14 199.0 21.0Q130 56 89.5 126.5Q49 197 49 303Q49 408 90.0 479.0Q131 550 199.0 586.0Q267 622 347 622Q404 622 446.0 609.5Q488 597 511.5 577.0Q535 557 535 535Z"/>
    <path transform="translate(3571.0 0.0)" d="M490 201H388V292Q388 347 357.5 373.0Q327 399 280 399Q243 399 212.0 385.0Q181 371 160 352L149 435Q172 451 210.0 466.5Q248 482 296 482Q383 482 436.5 435.5Q490 389 490 296ZM71 264H174V2Q167 0 154.5 -3.0Q142 -6 127 -6Q99 -6 85.0 5.0Q71 16 71 41ZM388 263H490V2Q484 0 471.0 -3.0Q458 -6 443 -6Q415 -6 401.5 5.0Q388 16 388 41ZM174 213H71V649Q78 651 91.0 654.0Q104 657 119 657Q147 657 160.5 646.5Q174 636 174 610Z"/>
    <path transform="translate(4131.0 0.0)" d="M63 611Q63 637 81.0 654.0Q99 671 125 671Q153 671 170.0 654.0Q187 637 187 611Q187 586 170.0 568.5Q153 551 125 551Q99 551 81.0 568.5Q63 586 63 611ZM74 264H177V2Q170 0 157.5 -3.0Q145 -6 130 -6Q102 -6 88.0 5.0Q74 16 74 41ZM177 213H74V465Q81 467 94.0 469.5Q107 472 122 472Q150 472 163.5 461.5Q177 451 177 425Z"/>
    <path transform="translate(4382.0 0.0)" d="M71 264H173V136Q173 100 194.0 85.0Q215 70 253 70Q269 70 289.0 75.0Q309 80 322 87Q329 80 334.5 69.5Q340 59 340 46Q340 20 313.5 3.5Q287 -13 234 -13Q160 -13 115.5 20.0Q71 53 71 130ZM129 376V458H328Q332 452 335.5 441.0Q339 430 339 418Q339 397 329.5 386.5Q320 376 303 376ZM173 236H71V597Q77 599 90.0 602.0Q103 605 118 605Q146 605 159.5 594.0Q173 583 173 558Z"/>
    <path transform="translate(4760.0 0.0)" d="M490 201H388V292Q388 347 357.5 373.0Q327 399 280 399Q243 399 212.0 385.0Q181 371 160 352L149 435Q172 451 210.0 466.5Q248 482 296 482Q383 482 436.5 435.5Q490 389 490 296ZM71 264H174V2Q167 0 154.5 -3.0Q142 -6 127 -6Q99 -6 85.0 5.0Q71 16 71 41ZM388 263H490V2Q484 0 471.0 -3.0Q458 -6 443 -6Q415 -6 401.5 5.0Q388 16 388 41ZM174 213H71V649Q78 651 91.0 654.0Q104 657 119 657Q147 657 160.5 646.5Q174 636 174 610Z"/>
    <path transform="translate(5320.0 0.0)" d="M63 611Q63 637 81.0 654.0Q99 671 125 671Q153 671 170.0 654.0Q187 637 187 611Q187 586 170.0 568.5Q153 551 125 551Q99 551 81.0 568.5Q63 586 63 611ZM74 264H177V2Q170 0 157.5 -3.0Q145 -6 130 -6Q102 -6 88.0 5.0Q74 16 74 41ZM177 213H74V465Q81 467 94.0 469.5Q107 472 122 472Q150 472 163.5 461.5Q177 451 177 425Z"/>
    <path transform="translate(5571.0 0.0)" d="M172 368V221H69V370Q69 394 79.5 409.5Q90 425 111 439Q139 457 184.5 469.0Q230 481 284 481Q371 481 371 432Q371 420 367.5 410.0Q364 400 359 392Q349 394 333.5 396.0Q318 398 302 398Q261 398 227.5 389.5Q194 381 172 368ZM69 264 172 255V2Q165 0 152.5 -3.0Q140 -6 125 -6Q97 -6 83.0 5.0Q69 16 69 41Z"/>
    <path transform="translate(5953.0 0.0)" d="M245 66Q281 66 306.5 73.5Q332 81 344 88V217L233 206Q187 202 163.5 185.5Q140 169 140 137Q140 104 166.0 85.0Q192 66 245 66ZM242 482Q335 482 389.5 441.5Q444 401 444 314V81Q444 58 434.0 45.0Q424 32 406 22Q380 7 338.5 -3.5Q297 -14 245 -14Q148 -14 93.5 23.5Q39 61 39 134Q39 200 82.0 235.5Q125 271 204 278L344 292V315Q344 360 315.0 380.0Q286 400 236 400Q196 400 158.5 389.0Q121 378 92 364Q83 372 76.0 383.5Q69 395 69 408Q69 439 103 455Q131 468 167.5 475.0Q204 482 242 482Z"/>
    <path transform="translate(6463.0 0.0)" d="M463 324V209H361V313Q361 358 335.0 378.5Q309 399 268 399Q240 399 214.5 390.0Q189 381 172 370V209H69V372Q69 394 78.5 409.0Q88 424 109 437Q137 456 181.0 469.0Q225 482 270 482Q320 482 360.0 466.5Q400 451 423 423Q430 417 435.0 411.5Q440 406 444 398Q452 384 457.5 365.0Q463 346 463 324ZM754 318V209H652V313Q652 358 627.0 378.5Q602 399 560 399Q529 399 500.5 386.0Q472 373 450 351L402 418Q431 444 473.0 463.0Q515 482 571 482Q624 482 665.5 464.5Q707 447 730.5 410.5Q754 374 754 318ZM69 260H172V2Q165 0 152.5 -3.0Q140 -6 125 -6Q97 -6 83.0 5.0Q69 16 69 41ZM361 260H463V2Q457 0 444.0 -3.0Q431 -6 416 -6Q388 -6 374.5 5.0Q361 16 361 41ZM652 260H754V2Q748 0 735.0 -3.0Q722 -6 708 -6Q679 -6 665.5 5.0Q652 16 652 41Z"/>
  </g>
</svg>
