<svg xmlns="http://www.w3.org/2000/svg" viewBox="0 0 460 96" width="460" height="96" role="img" aria-label="Kathai-Chithiram">
  <title>Kathai-Chithiram</title>
  <defs>
    <clipPath id="kcTile"><rect x="10" y="10" width="76" height="76" rx="16"/></clipPath>
  </defs>
  <g clip-path="url(#kcTile)">
    <rect x="10" y="10" width="76" height="76" fill="#6C4BB6"/>
    <path d="M10 74 Q48 56 86 74 L86 86 L10 86 Z" fill="#FF8FA3"/>
    <circle cx="40" cy="38" r="15" fill="#FFC94D"/>
    <circle cx="47" cy="34" r="13" fill="#6C4BB6"/>
    <circle cx="66" cy="28" r="3.5" fill="#FFF6E9"/>
    <circle cx="72" cy="46" r="2.5" fill="#4EA8DE"/>
    <circle cx="58" cy="54" r="2" fill="#FFF6E9"/>
  </g>
  <rect x="10" y="10" width="76" height="76" rx="16" fill="none" stroke="#FFF6E9" stroke-width="3"/>
  <g transform="translate(108.00 44.00) scale(0.016000 -0.016000)" fill="#6C4BB6">
    <path transform="translate(0.0 0.0)" d="M452 538 1061 1148Q1100 1186 1111.5 1217.0Q1123 1248 1111.0 1270.5Q1099 1293 1065 1304L1014 1316Q994 1323 985.0 1333.5Q976 1344 976 1360Q976 1379 989.5 1389.5Q1003 1400 1030 1400H1425Q1453 1400 1466.0 1389.5Q1479 1379 1479 1360Q1479 1343 1468.0 1333.5Q1457 1324 1425 1313Q1407 1308 1389.0 1299.0Q1371 1290 1346.5 1272.0Q1322 1254 1284.5 1221.0Q1247 1188 1189 1134L492 453ZM697 740 930 937 1404 165Q1426 129 1448.5 112.5Q1471 96 1502 90Q1530 81 1540.0 68.5Q1550 56 1550 40Q1550 22 1536.0 11.0Q1522 0 1495 0H1009Q982 0 968.5 11.0Q955 22 955 41Q955 58 964.0 68.5Q973 79 989 83L1045 94Q1065 99 1066.5 115.5Q1068 132 1049 165ZM551 151Q551 130 562.0 117.5Q573 105 595 98L650 85Q672 77 680.0 67.0Q688 57 688 41Q688 22 675.0 11.0Q662 0 635 0H152Q125 0 112.0 11.0Q99 22 99 41Q99 74 137 85L198 98Q222 105 234.0 117.5Q246 130 246 151V1249Q246 1270 234.0 1282.5Q222 1295 198 1302L137 1315Q99 1326 99 1359Q99 1379 112.0 1389.5Q125 1400 152 1400H645Q672 1400 685.0 1389.5Q698 1379 698 1359Q698 1326 660 1315L600 1302Q576 1295 563.5 1282.5Q551 1270 551 1249Z"/>
    <path transform="translate(1559.0 0.0)" d="M668 122V141L650 144V747Q650 818 615.0 856.5Q580 895 516 895Q457 895 425.0 868.5Q393 842 393 806V718Q393 660 353.5 627.0Q314 594 244 594Q185 594 154.0 622.5Q123 651 123 702Q123 764 173.5 823.0Q224 882 322.5 920.5Q421 959 565 959Q746 959 834.5 885.5Q923 812 923 685V165Q923 136 934.5 122.0Q946 108 967 108Q988 108 999.5 118.5Q1011 129 1018 142Q1023 148 1028.5 152.0Q1034 156 1041 156Q1052 156 1057.0 148.0Q1062 140 1062 127Q1062 96 1039.5 61.0Q1017 26 971.5 1.0Q926 -24 858 -24Q769 -24 718.5 15.5Q668 55 668 122ZM80 207Q80 330 188.5 405.0Q297 480 496 480Q561 480 611.5 469.0Q662 458 699 440L680 383Q645 399 610.0 408.5Q575 418 533 418Q451 418 405.5 374.0Q360 330 360 253Q360 176 399.5 135.0Q439 94 502 94Q554 94 602.5 118.5Q651 143 684 185L704 135Q650 59 560.0 17.5Q470 -24 368 -24Q240 -24 160.0 40.0Q80 104 80 207Z"/>
    <path transform="translate(2651.0 0.0)" d="M123 849 71 863Q50 870 41.0 879.0Q32 888 32 901Q32 919 44.0 928.0Q56 937 76 937H141Q162 937 176.5 945.0Q191 953 206 974L327 1132Q346 1155 363.0 1166.0Q380 1177 397 1177Q416 1177 426.5 1165.0Q437 1153 437 1130V278Q437 206 465.0 168.5Q493 131 543 131Q577 131 597.0 144.0Q617 157 629.5 175.0Q642 193 653.5 209.0Q665 225 682 229Q695 230 703.0 221.5Q711 213 710 192Q708 134 672.5 85.5Q637 37 575.0 8.5Q513 -20 433 -20Q306 -20 234.5 43.0Q163 106 163 233V795Q163 818 154.0 830.0Q145 842 123 849ZM332 850 333 937H659Q680 937 691.5 928.5Q703 920 703 904Q703 881 680.0 865.5Q657 850 605 850Z"/>
    <path transform="translate(3404.0 0.0)" d="M427 680 386 722 425 756Q548 869 641.0 914.5Q734 960 815 960Q940 960 1016.5 881.0Q1093 802 1093 665V148Q1093 118 1102.0 104.0Q1111 90 1130 84L1167 74Q1184 68 1192.0 59.0Q1200 50 1200 37Q1200 20 1188.5 10.0Q1177 0 1152 0H762Q713 0 713 39Q713 63 742 74L782 85Q801 90 809.0 104.5Q817 119 817 148V626Q817 714 775.0 757.5Q733 801 661 801Q617 801 567.5 780.0Q518 759 466 714ZM456 1430V146Q456 117 464.5 103.5Q473 90 490 85L529 74Q558 63 558 39Q558 0 509 0H120Q96 0 84.0 10.0Q72 20 72 37Q72 50 80.0 59.5Q88 69 106 74L147 85Q164 90 172.5 103.5Q181 117 181 145V1271Q181 1294 174.0 1304.0Q167 1314 151 1317L96 1320Q80 1324 73.0 1332.0Q66 1340 66 1352Q66 1367 74.5 1376.0Q83 1385 107 1393L307 1463Q341 1475 361.5 1480.5Q382 1486 400 1486Q428 1486 442.0 1470.5Q456 1455 456 1430Z"/>
    <path transform="translate(4653.0 0.0)" d="M668 122V141L650 144V747Q650 818 615.0 856.5Q580 895 516 895Q457 895 425.0 868.5Q393 842 393 806V718Q393 660 353.5 627.0Q314 594 244 594Q185 594 154.0 622.5Q123 651 123 702Q123 764 173.5 823.0Q224 882 322.5 920.5Q421 959 565 959Q746 959 834.5 885.5Q923 812 923 685V165Q923 136 934.5 122.0Q946 108 967 108Q988 108 999.5 118.5Q1011 129 1018 142Q1023 148 1028.5 152.0Q1034 156 1041 156Q1052 156 1057.0 148.0Q1062 140 1062 127Q1062 96 1039.5 61.0Q1017 26 971.5 1.0Q926 -24 858 -24Q769 -24 718.5 15.5Q668 55 668 122ZM80 207Q80 330 188.5 405.0Q297 480 496 480Q561 480 611.5 469.0Q662 458 699 440L680 383Q645 399 610.0 408.5Q575 418 533 418Q451 418 405.5 374.0Q360 330 360 253Q360 176 399.5 135.0Q439 94 502 94Q554 94 602.5 118.5Q651 143 684 185L704 135Q650 59 560.0 17.5Q470 -24 368 -24Q240 -24 160.0 40.0Q80 104 80 207Z"/>
    <path transform="translate(5745.0 0.0)" d="M457 899V146Q457 117 465.0 103.5Q473 90 491 85L531 75Q548 69 556.0 59.5Q564 50 564 37Q564 20 552.5 10.0Q541 0 516 0H121Q96 0 84.5 10.0Q73 20 73 37Q73 50 81.0 59.0Q89 68 106 74L148 85Q165 90 173.5 103.5Q182 117 182 145V741Q182 763 174.5 773.0Q167 783 152 786L97 789Q81 793 74.0 801.0Q67 809 67 822Q67 836 75.5 845.0Q84 854 107 863L308 932Q343 945 363.0 950.5Q383 956 399 956Q428 956 442.5 940.5Q457 925 457 899ZM300 1105Q222 1105 175.0 1146.0Q128 1187 128 1254Q128 1320 175.0 1360.5Q222 1401 300 1401Q378 1401 425.5 1360.5Q473 1320 473 1254Q473 1187 425.5 1146.0Q378 1105 300 1105Z"/>
    <path transform="translate(6357.0 0.0)" d="M647 643Q708 643 685 582L662 508Q652 479 637.5 469.0Q623 459 598 459H126Q65 459 87 520L111 594Q121 623 135.5 633.0Q150 643 174 643Z"/>
    <path transform="translate(7129.0 0.0)" d="M1327 375Q1325 301 1286.0 228.0Q1247 155 1174.5 95.0Q1102 35 1000.0 -0.5Q898 -36 769 -36Q555 -36 399.5 56.5Q244 149 160.0 313.0Q76 477 76 690Q76 851 126.0 987.0Q176 1123 267.0 1223.0Q358 1323 481.0 1378.5Q604 1434 749 1434Q849 1434 912.0 1414.0Q975 1394 1011.0 1374.0Q1047 1354 1066 1354Q1089 1354 1103.5 1372.0Q1118 1390 1133.0 1407.5Q1148 1425 1170 1425Q1186 1425 1197.0 1415.0Q1208 1405 1215 1380L1319 1028Q1326 1007 1315.5 991.0Q1305 975 1284 970Q1263 966 1246.0 974.5Q1229 983 1219 1005Q1165 1128 1099.5 1200.5Q1034 1273 957.5 1305.0Q881 1337 793 1337Q704 1337 629.5 1296.5Q555 1256 500.5 1180.5Q446 1105 416.0 998.5Q386 892 386 759Q386 553 448.0 411.5Q510 270 618.5 197.0Q727 124 867 124Q1002 124 1101.0 191.0Q1200 258 1251 379Q1261 400 1273.0 407.0Q1285 414 1300 411Q1314 409 1320.5 400.0Q1327 391 1327 375Z"/>
    <path transform="translate(8519.0 0.0)" d="M427 680 386 722 425 756Q548 869 641.0 914.5Q734 960 815 960Q940 960 1016.5 881.0Q1093 802 1093 665V148Q1093 118 1102.0 104.0Q1111 90 1130 84L1167 74Q1184 68 1192.0 59.0Q1200 50 1200 37Q1200 20 1188.5 10.0Q1177 0 1152 0H762Q713 0 713 39Q713 63 742 74L782 85Q801 90 809.0 104.5Q817 119 817 148V626Q817 714 775.0 757.5Q733 801 661 801Q617 801 567.5 780.0Q518 759 466 714ZM456 1430V146Q456 117 464.5 103.5Q473 90 490 85L529 74Q558 63 558 39Q558 0 509 0H120Q96 0 84.0 10.0Q72 20 72 37Q72 50 80.0 59.5Q88 69 106 74L147 85Q164 90 172.5 103.5Q181 117 181 145V1271Q181 1294 174.0 1304.0Q167 1314 151 1317L96 1320Q80 1324 73.0 1332.0Q66 1340 66 1352Q66 1367 74.5 1376.0Q83 1385 107 1393L307 1463Q341 1475 361.5 1480.5Q382 1486 400 1486Q428 1486 442.0 1470.5Q456 1455 456 1430Z"/>
    <path transform="translate(9768.0 0.0)" d="M457 899V146Q457 117 465.0 103.5Q473 90 491 85L531 75Q548 69 556.0 59.5Q564 50 564 37Q564 20 552.5 10.0Q541 0 516 0H121Q96 0 84.5 10.0Q73 20 73 37Q73 50 81.0 59.0Q89 68 106 74L148 85Q165 90 173.5 103.5Q182 117 182 145V741Q182 763 174.5 773.0Q167 783 152 786L97 789Q81 793 74.0 801.0Q67 809 67 822Q67 836 75.5 845.0Q84 854 107 863L308 932Q343 945 363.0 950.5Q383 956 399 956Q428 956 442.5 940.5Q457 925 457 899ZM300 1105Q222 1105 175.0 1146.0Q128 1187 128 1254Q128 1320 175.0 1360.5Q222 1401 300 1401Q378 1401 425.5 1360.5Q473 1320 473 1254Q473 1187 425.5 1146.0Q378 1105 300 1105Z"/>
    <path transform="translate(10380.0 0.0)" d="M123 849 71 863Q50 870 41.0 879.0Q32 888 32 901Q32 919 44.0 928.0Q56 937 76 937H141Q162 937 176.5 945.0Q191 953 206 974L327 1132Q346 1155 363.0 1166.0Q380 1177 397 1177Q416 1177 426.5 1165.0Q437 1153 437 1130V278Q437 206 465.0 168.5Q493 131 543 131Q577 131 597.0 144.0Q617 157 629.5 175.0Q642 193 653.5 209.0Q665 225 682 229Q695 230 703.0 221.5Q711 213 710 192Q708 134 672.5 85.5Q637 37 575.0 8.5Q513 -20 433 -20Q306 -20 234.5 43.0Q163 106 163 233V795Q163 818 154.0 830.0Q145 842 123 849ZM332 850 333 937H659Q680 937 691.5 928.5Q703 920 703 904Q703 881 680.0 865.5Q657 850 605 850Z"/>
    <path transform="translate(11133.0 0.0)" d="M427 680 386 722 425 756Q548 869 641.0 914.5Q734 960 815 960Q940 960 1016.5 881.0Q1093 802 1093 665V148Q1093 118 1102.0 104.0Q1111 90 1130 84L1167 74Q1184 68 1192.0 59.0Q1200 50 1200 37Q1200 20 1188.5 10.0Q1177 0 1152 0H762Q713 0 713 39Q713 63 742 74L782 85Q801 90 809.0 104.5Q817 119 817 148V626Q817 714 775.0 757.5Q733 801 661 801Q617 801 567.5 780.0Q518 759 466 714ZM456 1430V146Q456 117 464.5 103.5Q473 90 490 85L529 74Q558 63 558 39Q558 0 509 0H120Q96 0 84.0 10.0Q72 20 72 37Q72 50 80.0 59.5Q88 69 106 74L147 85Q164 90 172.5 103.5Q181 117 181 145V1271Q181 1294 174.0 1304.0Q167 1314 151 1317L96 1320Q80 1324 73.0 1332.0Q66 1340 66 1352Q66 1367 74.5 1376.0Q83 1385 107 1393L307 1463Q341 1475 361.5 1480.5Q382 1486 400 1486Q428 1486 442.0 1470.5Q456 1455 456 1430Z"/>
    <path transform="translate(12382.0 0.0)" d="M457 899V146Q457 117 465.0 103.5Q473 90 491 85L531 75Q548 69 556.0 59.5Q564 50 564 37Q564 20 552.5 10.0Q541 0 516 0H121Q96 0 84.5 10.0Q73 20 73 37Q73 50 81.0 59.0Q89 68 106 74L148 85Q165 90 173.5 103.5Q182 117 182 145V741Q182 763 174.5 773.0Q167 783 152 786L97 789Q81 793 74.0 801.0Q67 809 67 822Q67 836 75.5 845.0Q84 854 107 863L308 932Q343 945 363.0 950.5Q383 956 399 956Q428 956 442.5 940.5Q457 925 457 899ZM300 1105Q222 1105 175.0 1146.0Q128 1187 128 1254Q128 1320 175.0 1360.5Q222 1401 300 1401Q378 1401 425.5 1360.5Q473 1320 473 1254Q473 1187 425.5 1146.0Q378 1105 300 1105Z"/>
    <path transform="translate(12994.0 0.0)" d="M424 525Q424 669 465.0 766.0Q506 863 571.5 911.5Q637 960 712 960Q805 960 855.0 907.0Q905 854 905 755Q905 668 868.5 624.5Q832 581 774 581Q716 581 685.5 612.5Q655 644 655 700V736Q654 767 640.5 783.0Q627 799 595 799Q560 799 528.5 769.5Q497 740 476.5 681.0Q456 622 456 529ZM442 898 456 656V147Q456 121 466.5 108.0Q477 95 505 90L592 77Q613 73 623.0 63.5Q633 54 633 37Q633 20 620.5 10.0Q608 0 584 0H121Q96 0 84.5 10.0Q73 20 73 37Q73 50 81.0 59.5Q89 69 106 74L147 85Q165 90 173.0 103.0Q181 116 181 145V739Q181 762 174.0 772.0Q167 782 151 785L96 788Q80 792 73.0 800.0Q66 808 66 820Q66 835 75.0 844.5Q84 854 107 862L304 928Q347 945 367.5 950.0Q388 955 400 955Q419 955 429.0 941.5Q439 928 442 898Z"/>
    <path transform="translate(13926.0 0.0)" d="M668 122V141L650 144V747Q650 818 615.0 856.5Q580 895 516 895Q457 895 425.0 868.5Q393 842 393 806V718Q393 660 353.5 627.0Q314 594 244 594Q185 594 154.0 622.5Q123 651 123 702Q123 764 173.5 823.0Q224 882 322.5 920.5Q421 959 565 959Q746 959 834.5 885.5Q923 812 923 685V165Q923 136 934.5 122.0Q946 108 967 108Q988 108 999.5 118.5Q1011 129 1018 142Q1023 148 1028.5 152.0Q1034 156 1041 156Q1052 156 1057.0 148.0Q1062 140 1062 127Q1062 96 1039.5 61.0Q1017 26 971.5 1.0Q926 -24 858 -24Q769 -24 718.5 15.5Q668 55 668 122ZM80 207Q80 330 188.5 405.0Q297 480 496 480Q561 480 611.5 469.0Q662 458 699 440L680 383Q645 399 610.0 408.5Q575 418 533 418Q451 418 405.5 374.0Q360 330 360 253Q360 176 399.5 135.0Q439 94 502 94Q554 94 602.5 118.5Q651 143 684 185L704 135Q650 59 560.0 17.5Q470 -24 368 -24Q240 -24 160.0 40.0Q80 104 80 207Z"/>
    <path transform="translate(15018.0 0.0)" d="M456 899V146Q456 117 464.5 103.5Q473 90 490 85L529 74Q558 63 558 39Q558 0 509 0H120Q96 0 84.0 10.0Q72 20 72 37Q72 50 80.0 59.0Q88 68 105 74L147 85Q164 90 172.5 103.5Q181 117 181 145V741Q181 763 174.0 773.0Q167 783 151 786L96 789Q80 793 73.0 801.0Q66 809 66 822Q66 836 74.5 845.0Q83 854 107 863L307 932Q341 945 361.5 950.5Q382 956 400 956Q428 956 442.0 940.5Q456 925 456 899ZM426 680 386 722 424 756Q548 869 639.5 914.5Q731 960 812 960Q937 960 1012.0 881.0Q1087 802 1087 665V148Q1087 118 1096.5 104.0Q1106 90 1124 84L1161 74Q1188 62 1188 39Q1188 0 1140 0H757Q708 0 708 39Q708 63 736 74L777 85Q796 90 804.0 104.5Q812 119 812 148V626Q812 714 771.0 757.5Q730 801 658 801Q614 801 566.0 780.0Q518 759 466 714ZM1056 680 1015 722 1054 756Q1178 869 1269.0 914.5Q1360 960 1442 960Q1567 960 1642.0 881.0Q1717 802 1717 665V148Q1717 118 1726.0 104.0Q1735 90 1754 84L1791 74Q1808 68 1816.0 59.0Q1824 50 1824 37Q1824 20 1812.5 10.0Q1801 0 1776 0H1387Q1338 0 1338 39Q1338 63 1366 74L1407 85Q1426 90 1434.0 104.5Q1442 119 1442 148V626Q1442 714 1401.0 757.5Q1360 801 1288 801Q1244 801 1195.5 780.0Q1147 759 1096 714Z"/>
  </g>
  <g transform="translate(109.00 70.00) scale(0.020000 -0.020000)" fill="#B0568A">
    <path transform="translate(0.0 0.0)" d="M261 -12Q201 -12 153.0 7.0Q105 26 77.0 63.0Q49 100 49 152Q49 204 75.5 243.0Q102 282 160 303V554H683V482H496V328H512Q590 328 638.0 316.5Q686 305 720 279Q746 259 761.0 226.5Q776 194 776 152Q776 76 730.5 34.0Q685 -8 602 -8Q579 -8 552.0 -5.0Q525 -2 502 5L521 72Q554 62 594 62Q690 62 690 156Q690 202 664.5 223.5Q639 245 600.0 251.5Q561 258 519 258H496V226Q496 159 484.5 121.0Q473 83 452 57Q421 19 372.5 3.5Q324 -12 261 -12ZM239 482V322Q281 328 332 328H411V482ZM135 153Q135 107 173.0 83.5Q211 60 269 60Q313 60 344.5 73.5Q376 87 393.5 120.0Q411 153 411 213V258H325Q274 258 238.5 252.0Q203 246 178 232Q135 207 135 153Z"/>
    <path transform="translate(825.0 0.0)" d="M249 -12Q196 -12 152.0 14.5Q108 41 82.5 97.0Q57 153 57 243Q57 342 100.5 414.5Q144 487 222.5 526.5Q301 566 408 566Q476 566 535.0 551.0Q594 536 648 504Q686 534 731.5 550.0Q777 566 828 566Q922 566 981.0 526.5Q1040 487 1068.0 422.0Q1096 357 1096 280Q1096 211 1082.5 157.5Q1069 104 1048.5 62.5Q1028 21 1005 -12L933 32Q965 77 986.5 134.5Q1008 192 1008 276Q1008 374 959.0 433.0Q910 492 821 492Q752 492 702 460Q762 409 793.5 338.5Q825 268 825 189Q825 89 781.5 38.5Q738 -12 663 -12Q605 -12 568.5 14.0Q532 40 514.5 84.5Q497 129 497 186Q497 272 523.0 336.0Q549 400 592 451Q549 474 500.5 483.0Q452 492 398 492Q288 492 222.0 435.5Q156 379 140 290Q167 308 198.0 318.0Q229 328 261 328Q333 328 377.5 284.0Q422 240 422 165Q422 82 375.5 35.0Q329 -12 249 -12ZM581 189Q581 120 602.0 88.0Q623 56 660 56Q691 56 708.5 75.0Q726 94 733.0 123.0Q740 152 740 182Q740 252 716.5 309.0Q693 366 648 410Q613 364 597.0 308.5Q581 253 581 189ZM247 258Q216 258 188.5 245.5Q161 233 136 212Q141 126 174.0 91.0Q207 56 254 56Q294 56 317.0 81.5Q340 107 340 155Q340 205 314.0 231.5Q288 258 247 258Z"/>
    <path transform="translate(1985.0 0.0)" d="M261 -12Q201 -12 153.0 7.0Q105 26 77.0 63.0Q49 100 49 152Q49 204 75.5 243.0Q102 282 160 303V554H683V482H496V328Q578 326 641.5 303.5Q705 281 741.0 231.0Q777 181 777 98Q777 31 752.0 -14.5Q727 -60 681 -94Q632 -129 562.5 -142.5Q493 -156 385 -156H272Q230 -156 207.0 -162.0Q184 -168 167 -179Q151 -190 142.0 -210.0Q133 -230 133 -263Q133 -293 136 -317L54 -321Q51 -303 49.0 -281.5Q47 -260 47 -243Q47 -199 63.0 -168.5Q79 -138 104 -119Q130 -100 162.5 -92.0Q195 -84 245 -84H354Q443 -84 500.0 -76.5Q557 -69 592.0 -53.5Q627 -38 650 -13Q691 31 691 105Q691 164 663.0 196.5Q635 229 590.0 242.0Q545 255 496 257V226Q496 159 484.5 121.0Q473 83 452 57Q421 19 372.5 3.5Q324 -12 261 -12ZM239 482V322Q281 328 332 328H411V482ZM135 153Q135 107 173.0 83.5Q211 60 269 60Q313 60 344.5 73.5Q376 87 393.5 120.5Q411 154 411 213V258H325Q274 258 238.5 252.0Q203 246 178 232Q135 207 135 153Z"/>
    <path transform="translate(3070.0 0.0)" d="M261 -12Q201 -12 153.0 7.0Q105 26 77.0 63.0Q49 100 49 152Q49 204 75.5 242.5Q102 281 160 303V554H683V482H496V328H683V258H496V226Q496 159 484.5 121.0Q473 83 452 57Q421 19 372.5 3.5Q324 -12 261 -12ZM239 482V322Q281 328 332 328H411V482ZM269 60Q313 60 344.5 73.5Q376 87 393.5 120.5Q411 154 411 213V258H325Q274 258 238.5 252.0Q203 246 178 232Q135 207 135 153Q135 107 173.0 83.5Q211 60 269 60Z"/>
    <path transform="translate(3793.0 0.0)" d="M-89 843Q-33 843 15.0 825.5Q63 808 97 773Q121 749 138.0 714.5Q155 680 164.5 624.5Q174 569 174 481V0H88V464Q88 542 81.5 590.5Q75 639 62.5 669.0Q50 699 32 720Q10 746 -22.5 757.0Q-55 768 -95 768Q-168 768 -204.0 731.5Q-240 695 -240 637Q-240 611 -232.5 578.5Q-225 546 -206 515H-297Q-310 539 -318.0 572.0Q-326 605 -326 637Q-326 708 -294.0 753.5Q-262 799 -208.0 821.0Q-154 843 -89 843Z"/>
    <path transform="translate(4055.0 0.0)" d="M261 -12Q201 -12 153.0 7.0Q105 26 77.0 63.0Q49 100 49 152Q49 204 75.5 243.0Q102 282 160 303V554H683V482H496V328Q578 326 641.5 303.5Q705 281 741.0 231.0Q777 181 777 98Q777 31 752.0 -14.5Q727 -60 681 -94Q632 -129 562.5 -142.5Q493 -156 385 -156H272Q230 -156 207.0 -162.0Q184 -168 167 -179Q151 -190 142.0 -210.0Q133 -230 133 -263Q133 -293 136 -317L54 -321Q51 -303 49.0 -281.5Q47 -260 47 -243Q47 -199 63.0 -168.5Q79 -138 104 -119Q130 -100 162.5 -92.0Q195 -84 245 -84H354Q443 -84 500.0 -76.5Q557 -69 592.0 -53.5Q627 -38 650 -13Q691 31 691 105Q691 164 663.0 196.5Q635 229 590.0 242.0Q545 255 496 257V226Q496 159 484.5 121.0Q473 83 452 57Q421 19 372.5 3.5Q324 -12 261 -12ZM239 482V322Q281 328 332 328H411V482ZM135 153Q135 107 173.0 83.5Q211 60 269 60Q313 60 344.5 73.5Q376 87 393.5 120.5Q411 154 411 213V258H325Q274 258 238.5 252.0Q203 246 178 232Q135 207 135 153ZM435 678Q406 678 387.0 696.5Q368 715 368 745Q368 774 387.0 793.0Q406 812 435 812Q464 812 483.0 793.0Q502 774 502 745Q502 715 483.0 696.5Q464 678 435 678Z"/>
    <path transform="translate(4880.0 0.0)" d="M261 -12Q201 -12 153.0 7.0Q105 26 77.0 63.0Q49 100 49 152Q49 204 75.5 243.0Q102 282 160 303V554H683V482H496V328Q578 326 641.5 303.5Q705 281 741.0 231.0Q777 181 777 98Q777 31 752.0 -14.5Q727 -60 681 -94Q632 -129 562.5 -142.5Q493 -156 385 -156H272Q230 -156 207.0 -162.0Q184 -168 167 -179Q151 -190 142.0 -210.0Q133 -230 133 -263Q133 -293 136 -317L54 -321Q51 -303 49.0 -281.5Q47 -260 47 -243Q47 -199 63.0 -168.5Q79 -138 104 -119Q130 -100 162.5 -92.0Q195 -84 245 -84H354Q443 -84 500.0 -76.5Q557 -69 592.0 -53.5Q627 -38 650 -13Q691 31 691 105Q691 164 663.0 196.5Q635 229 590.0 242.0Q545 255 496 257V226Q496 159 484.5 121.0Q473 83 452 57Q421 19 372.5 3.5Q324 -12 261 -12ZM239 482V322Q281 328 332 328H411V482ZM135 153Q135 107 173.0 83.5Q211 60 269 60Q313 60 344.5 73.5Q376 87 393.5 120.5Q411 154 411 213V258H325Q274 258 238.5 252.0Q203 246 178 232Q135 207 135 153Z"/>
    <path transform="translate(5705.0 0.0)" d="M-148 843Q-92 843 -38.0 830.0Q16 817 59 780Q97 748 122.5 706.0Q148 664 161.0 603.0Q174 542 174 451V0H88V442Q88 555 63.5 624.0Q39 693 -8 728Q-36 749 -71.5 758.5Q-107 768 -146 768Q-236 768 -288.5 731.0Q-341 694 -341 615Q-341 564 -318 515H-405Q-415 536 -421.0 565.0Q-427 594 -427 619Q-427 699 -387.5 748.0Q-348 797 -284.0 820.0Q-220 843 -148 843Z"/>
    <path transform="translate(5967.0 0.0)" d="M231 -212 174 -159 367 24V482H174V0H88V554H623V482H453V0Z"/>
    <path transform="translate(6607.0 0.0)" d="M580 566Q655 566 703.0 527.5Q751 489 774.0 420.5Q797 352 797 262Q797 192 782.0 142.0Q767 92 734 60Q699 26 648.5 13.0Q598 0 512 0H88V554H174V72H400V355Q400 417 411.5 453.5Q423 490 445 515Q468 540 500.0 553.0Q532 566 580 566ZM578 494Q561 494 545.0 488.5Q529 483 518 471Q502 453 494.0 426.5Q486 400 486 338V72H533Q601 72 639.0 91.0Q677 110 693.0 153.0Q709 196 709 267Q709 331 695.5 382.0Q682 433 653.5 463.5Q625 494 578 494ZM430 678Q401 678 382.0 696.5Q363 715 363 745Q363 774 382.0 793.0Q401 812 430 812Q459 812 478.0 793.0Q497 774 497 745Q497 715 478.0 696.5Q459 678 430 678Z"/>
  </g>
</svg>
